<?xml version="1.0" standalone="no"?>
<!DOCTYPE svg PUBLIC "-//W3C//DTD SVG 20010904//EN"
 "http://www.w3.org/TR/2001/REC-SVG-20010904/DTD/svg10.dtd">
<svg version="1.0" xmlns="http://www.w3.org/2000/svg"
 width="1080.000000pt" height="1080.000000pt" viewBox="0 0 1080.000000 1080.000000"
 preserveAspectRatio="xMidYMid meet">
<metadata>
Created by potrace 1.14, written by Peter Selinger 2001-2017
</metadata>
<g transform="translate(0.000000,1080.000000) scale(0.100000,-0.100000)"
fill="#000000" stroke="none">
<path d="M0 5400 l0 -5400 5400 0 5400 0 0 5400 0 5400 -5400 0 -5400 0 0
-5400z m5250 4561 c0 -26 -3 -29 -46 -35 -26 -3 -74 -6 -108 -6 -252 -1 -699
-78 -1012 -175 -1487 -462 -2578 -1732 -2809 -3274 -8 -57 -13 -106 -11 -108
3 -3 12 10 21 29 59 116 284 377 606 703 329 333 376 399 410 569 5 28 12 61
15 74 6 28 39 30 54 3 22 -43 4 -252 -36 -401 -27 -103 -98 -257 -165 -360
-78 -121 -161 -214 -424 -475 -281 -280 -360 -375 -434 -524 -85 -171 -84
-166 -72 -352 7 -90 23 -229 36 -309 13 -80 28 -174 32 -210 l8 -65 23 160
c56 394 179 757 369 1088 37 63 49 78 67 75 18 -3 22 -12 29 -78 12 -103 -8
-478 -32 -620 -23 -135 -70 -283 -136 -430 -148 -330 -215 -509 -215 -570 0
-43 83 -274 165 -457 68 -153 216 -432 257 -484 18 -24 18 -23 2 21 -50 146
-64 273 -74 705 -9 389 -18 470 -69 620 -25 71 -27 87 -16 102 12 16 16 16 41
3 16 -8 61 -46 100 -85 142 -139 228 -313 276 -559 25 -129 29 -336 14 -776
-6 -201 -5 -279 4 -325 7 -33 15 -76 18 -95 6 -44 130 -187 336 -387 352 -344
772 -623 1231 -818 332 -141 758 -251 1150 -297 174 -20 726 -17 903 5 874
109 1633 458 2277 1045 367 335 700 783 906 1218 31 67 64 124 72 127 16 6 37
-10 37 -29 0 -43 -179 -376 -308 -574 -441 -678 -1078 -1219 -1802 -1533 -291
-126 -535 -202 -860 -267 -287 -57 -475 -75 -785 -74 -379 0 -651 32 -985 114
-763 188 -1412 558 -1968 1123 l-123 125 -67 11 c-272 46 -503 151 -762 347
-52 39 -178 143 -280 230 -226 193 -307 257 -422 337 -86 60 -108 90 -73 103
22 9 215 -15 348 -42 296 -62 567 -199 782 -396 47 -43 72 -61 61 -44 -10 15
-34 55 -53 87 -18 33 -40 59 -48 59 -19 0 -223 181 -341 302 -311 318 -540
643 -745 1054 -110 222 -134 289 -108 299 9 3 112 -91 280 -257 306 -303 374
-376 466 -499 36 -49 68 -88 69 -86 4 3 -22 196 -31 230 -5 18 -26 40 -61 63
-152 101 -235 250 -404 724 -161 450 -213 547 -483 883 -118 147 -133 177 -86
177 27 0 288 -196 452 -340 238 -209 357 -363 433 -565 l19 -50 5 195 5 195
-57 98 c-110 190 -148 318 -148 499 0 189 73 613 172 1002 50 194 51 206 52
341 0 129 -2 146 -28 215 -36 97 -38 124 -10 128 27 4 74 -65 139 -200 87
-182 121 -361 112 -583 -7 -166 -32 -306 -107 -607 -69 -276 -88 -376 -95
-503 l-5 -90 25 135 c153 822 500 1520 1054 2115 342 366 748 667 1206 890
485 237 950 360 1540 408 22 2 82 4 133 5 l92 2 0 -29z m1141 -201 c35 0 59
-4 59 -11 0 -6 -33 -9 -92 -8 l-93 2 -3 -37 -3 -36 85 0 c64 0 86 -3 86 -13 0
-9 -22 -13 -82 -12 l-83 0 -3 -38 -3 -38 95 3 c72 2 96 0 96 -9 0 -10 -29 -13
-110 -13 l-110 0 0 103 c0 57 3 107 8 111 4 4 27 5 51 2 24 -3 70 -6 102 -6z
m397 -40 c55 -25 79 -74 62 -126 -14 -40 -53 -74 -88 -74 l-25 0 27 -21 c29
-22 34 -39 12 -39 -7 0 -21 11 -30 24 -10 16 -35 30 -72 41 -71 21 -104 54
-104 107 0 22 5 48 10 58 27 50 131 65 208 30z m242 -52 c0 -7 -7 -35 -15 -62
-8 -27 -15 -59 -15 -72 0 -38 40 -75 87 -81 64 -8 88 12 114 96 15 53 24 68
35 64 8 -3 13 -11 11 -17 -2 -6 -12 -37 -21 -68 -20 -71 -51 -98 -113 -98 -81
0 -143 48 -143 110 0 40 33 140 47 140 7 0 13 -6 13 -12z m373 -124 c11 -4 7
-22 -24 -95 -22 -49 -39 -94 -39 -99 0 -12 -3 -12 -23 -4 -12 4 -6 24 27 104
22 55 42 100 43 100 1 0 8 -2 16 -6z m351 -175 c5 -5 7 -12 3 -15 -4 -4 -29 5
-56 20 l-50 27 -40 -73 c-54 -99 -54 -99 -69 -90 -10 7 -2 28 33 90 26 45 44
86 41 90 -3 5 -23 17 -46 27 -22 10 -40 24 -40 32 0 9 36 -5 108 -43 59 -31
111 -61 116 -65z m117 -95 c4 -16 7 -50 8 -77 1 -53 -4 -52 97 -22 23 7 48 9
55 4 19 -12 12 -15 -75 -38 -44 -11 -83 -26 -87 -33 -24 -41 -38 -53 -49 -41
-9 8 -7 18 11 42 24 32 27 72 13 165 -5 30 -3 37 7 34 8 -3 17 -18 20 -34z
m1162 -257 c15 -10 27 -27 27 -39 0 -12 7 -29 16 -39 14 -16 14 -18 -6 -29
l-22 -12 27 -28 c34 -35 31 -70 -8 -88 -15 -7 -87 -18 -160 -23 -73 -5 -226
-15 -342 -24 -263 -19 -511 -35 -531 -35 -11 0 -13 6 -9 20 9 29 -27 27 -40
-2 -7 -17 -19 -23 -45 -24 -19 -1 -78 -6 -130 -12 -117 -14 -170 -15 -170 -3
0 5 25 13 55 16 86 11 56 18 -40 10 -77 -6 -87 -9 -95 -30 -11 -30 -40 -40
-59 -20 -14 14 -14 16 7 21 29 8 28 27 -2 43 -29 16 -64 6 -62 -16 1 -14 -14
-20 -69 -30 -106 -19 -115 -22 -115 -38 0 -19 -16 -19 -24 0 -3 8 -15 15 -27
15 -18 0 -19 -2 -9 -15 7 -9 11 -17 9 -18 -18 -13 -67 -27 -109 -33 -42 -6
-50 -4 -50 10 0 10 8 16 23 16 13 0 32 7 43 15 18 14 18 14 -6 14 -14 0 -72
-9 -130 -19 l-105 -19 80 5 c76 5 79 4 63 -12 -11 -12 -48 -22 -105 -30 -250
-34 -455 -68 -668 -109 -44 -8 -93 -15 -108 -15 -25 0 -27 2 -17 20 6 11 7 20
1 20 -5 0 -14 -14 -20 -30 -5 -17 -16 -32 -23 -34 -7 -2 -67 -16 -133 -31
-113 -26 -235 -75 -235 -94 0 -4 -60 -73 -132 -153 -73 -79 -158 -176 -189
-214 -115 -141 -301 -416 -606 -896 -13 -21 -28 -38 -33 -38 -6 0 -10 -8 -10
-18 0 -10 -21 -53 -46 -97 -25 -44 -92 -172 -149 -285 -57 -113 -121 -237
-142 -277 -21 -39 -35 -74 -32 -78 3 -3 78 20 165 51 87 31 231 82 320 113 88
32 181 71 206 88 70 47 82 49 101 11 51 -105 50 -93 25 -156 -36 -90 -91 -120
-600 -323 -112 -45 -242 -101 -289 -125 -100 -50 -100 -50 -167 -254 -99 -299
-131 -492 -139 -831 -8 -361 8 -486 84 -651 32 -69 39 -78 77 -91 88 -33 135
-40 261 -40 120 -1 137 2 230 32 100 33 186 73 256 117 34 21 38 30 69 141 30
109 167 438 255 613 47 93 214 382 232 403 32 35 22 7 -37 -107 -34 -67 -60
-128 -60 -146 0 -17 -9 -39 -20 -50 -11 -11 -20 -29 -20 -40 0 -27 -33 -92
-65 -126 -14 -15 -23 -34 -20 -42 3 -8 -24 -82 -59 -166 -73 -171 -76 -177
-122 -304 -27 -73 -30 -91 -17 -84 9 6 44 84 80 178 87 232 186 452 308 689
56 110 109 220 116 245 28 96 187 326 326 471 53 54 99 99 104 99 17 0 8 -17
-29 -57 -21 -22 -46 -56 -55 -75 -9 -19 -23 -41 -32 -48 -8 -7 -15 -16 -15
-20 0 -4 -16 -24 -35 -44 -19 -21 -35 -44 -35 -52 0 -8 -4 -14 -8 -14 -4 0
-13 -12 -19 -27 -7 -16 -18 -37 -25 -47 -7 -11 -34 -51 -60 -89 -27 -39 -48
-75 -48 -80 0 -6 -7 -18 -16 -28 -9 -10 -14 -23 -12 -29 3 -9 308 436 348 508
8 15 18 28 22 30 5 2 47 52 95 110 140 172 284 331 511 565 117 120 220 231
230 245 9 15 19 29 22 32 3 3 14 16 25 30 11 14 -21 -13 -70 -60 -50 -47 -144
-133 -210 -193 -106 -94 -227 -221 -284 -297 -23 -29 -38 -22 -21 10 7 12 55
72 107 134 87 102 88 105 22 36 -40 -41 -128 -137 -196 -213 -96 -109 -123
-145 -123 -167 0 -21 -17 -48 -61 -99 -64 -74 -109 -111 -109 -90 0 7 6 20 13
29 6 9 -3 0 -21 -19 -19 -20 -53 -65 -76 -101 -45 -69 -92 -119 -66 -70 24 46
133 204 189 275 180 228 381 442 741 792 247 240 364 336 539 442 105 64 126
70 284 83 115 9 133 8 175 -8 60 -23 134 -97 150 -150 58 -196 -95 -685 -343
-1094 -84 -139 -224 -327 -292 -392 -58 -54 -96 -73 -163 -79 -65 -6 -111 31
-150 119 l-21 47 23 18 c16 14 32 17 58 13 53 -8 110 23 193 106 251 253 491
717 552 1066 17 98 19 199 5 237 -9 25 -14 27 -48 20 -20 -3 -109 -42 -198
-86 -285 -143 -589 -380 -919 -718 -55 -57 -111 -108 -125 -114 -15 -7 -48
-37 -75 -67 -28 -30 -41 -48 -30 -39 37 30 50 32 26 6 -14 -15 -31 -26 -39
-25 -8 2 -35 -22 -59 -52 -25 -30 -57 -71 -73 -90 -32 -40 -31 -53 2 -24 l22
19 -14 -22 c-73 -110 -204 -301 -246 -358 -28 -38 -55 -80 -59 -93 -4 -15 -12
-21 -21 -18 -8 3 -14 -1 -14 -8 0 -7 -25 -53 -56 -102 -207 -330 -476 -861
-529 -1044 -7 -23 -5 -22 31 11 22 20 63 59 93 85 30 27 70 67 90 88 20 22 83
92 141 155 374 409 566 641 889 1076 58 77 125 165 151 195 47 56 160 207 193
261 11 16 23 27 28 23 18 -11 8 -51 -31 -119 -37 -64 -38 -67 -9 -32 48 58 55
44 14 -30 -45 -83 -229 -360 -284 -428 -22 -27 -62 -85 -88 -128 -26 -42 -57
-80 -68 -83 -33 -10 -83 -52 -91 -76 -4 -13 -19 -37 -35 -55 -33 -38 -83 -122
-77 -129 3 -2 22 21 44 52 58 82 91 120 100 112 15 -15 -119 -211 -299 -437
-54 -68 -102 -134 -107 -146 -23 -59 -208 -255 -600 -633 -47 -45 -80 -82 -75
-82 6 0 45 30 88 66 43 36 81 63 84 60 8 -8 -112 -130 -160 -163 -23 -15 -44
-32 -45 -36 -2 -4 -34 -28 -71 -52 l-68 -45 -16 -82 c-9 -46 -19 -105 -23
-133 -3 -27 -13 -63 -21 -80 -13 -24 -15 -51 -9 -146 7 -133 26 -218 60 -269
28 -43 101 -84 187 -106 83 -21 246 -13 414 21 101 20 140 34 244 86 135 68
411 237 506 310 56 43 186 161 140 127 -39 -29 -50 -31 -26 -5 15 16 31 25 41
22 20 -6 267 227 348 328 77 97 139 160 150 153 12 -7 146 132 202 209 23 33
86 103 139 155 82 82 293 313 426 469 21 25 75 84 120 131 44 47 118 133 163
192 89 115 102 128 102 103 0 -9 -29 -57 -65 -108 -150 -211 -221 -310 -235
-326 -8 -10 -21 -28 -29 -41 -28 -49 -281 -350 -431 -513 -226 -247 -252 -274
-246 -255 3 12 1 15 -10 11 -7 -3 -14 -9 -14 -14 0 -4 -19 -27 -42 -51 -24
-23 -34 -36 -23 -28 24 17 -15 -28 -111 -130 -40 -42 -78 -91 -87 -111 -14
-34 -167 -184 -322 -316 -97 -83 -282 -218 -428 -313 -67 -44 -127 -84 -134
-90 -41 -33 -120 -73 -193 -95 -47 -15 -113 -38 -146 -51 -51 -21 -85 -26
-192 -31 -159 -7 -228 4 -339 58 -68 32 -93 52 -157 121 -138 150 -170 247
-171 516 0 178 -1 183 -20 178 -11 -4 -85 -20 -165 -37 -157 -33 -144 -33
-312 7 -87 20 -115 35 -224 116 -113 84 -136 115 -233 303 -114 222 -159 481
-148 839 7 195 20 315 57 490 23 110 25 162 9 172 -6 3 -22 30 -35 59 -12 29
-28 56 -33 60 -17 10 -13 72 5 90 9 9 60 38 113 64 l96 49 29 68 c16 38 53
116 81 174 29 58 55 119 59 135 6 28 263 548 309 627 12 20 46 80 76 135 82
150 258 428 399 629 122 174 157 222 238 328 l38 49 -29 -6 c-53 -10 -528
-174 -599 -207 -39 -17 -90 -40 -115 -49 -66 -26 -339 -146 -526 -231 -166
-75 -209 -91 -260 -94 -27 -1 -32 4 -51 53 -12 30 -29 58 -38 63 -13 7 -16 27
-16 102 0 112 -11 102 175 174 193 76 624 233 705 257 30 9 93 30 140 47 209
74 613 199 800 247 63 16 176 46 250 65 261 68 786 176 1049 216 213 32 716
98 831 109 200 20 466 42 610 51 80 5 219 16 310 25 204 19 409 32 515 31 60
-1 88 -6 108 -19z m-496 -363 c56 -42 107 -150 77 -161 -7 -2 -14 11 -18 30
-10 51 -59 113 -100 127 -28 9 -40 8 -64 -4 -80 -42 -47 -158 63 -222 12 -6
15 -13 8 -17 -6 -4 -25 3 -43 16 -115 77 -134 210 -37 253 39 17 71 10 114
-22z m225 -336 c49 -98 55 -124 33 -148 -27 -30 -69 -26 -97 10 l-23 29 0 -49
c0 -33 -6 -55 -17 -66 -16 -16 -18 -16 -24 -1 -3 9 1 26 10 39 22 31 20 81 -5
129 l-20 40 -37 -21 c-33 -20 -48 -17 -41 7 1 7 165 99 179 102 3 1 22 -32 42
-71z m84 -344 c64 -6 73 -9 84 -32 10 -24 7 -30 -72 -109 -53 -53 -86 -79 -92
-73 -6 6 -2 18 12 33 l22 23 -20 59 c-24 70 -36 85 -65 85 -13 0 -26 7 -29 16
-6 14 0 16 41 11 27 -4 80 -9 119 -13z m169 -296 c32 -143 45 -200 45 -208 0
-21 -24 -7 -120 67 -55 42 -102 74 -104 72 -3 -4 23 -123 38 -166 5 -17 3 -23
-8 -23 -10 0 -20 28 -36 98 -12 53 -24 104 -26 114 -11 37 19 24 116 -52 57
-44 105 -79 107 -76 2 2 -5 40 -16 84 -12 44 -21 87 -21 96 0 24 19 19 25 -6z
m78 -467 c4 -57 6 -106 3 -108 -17 -17 -26 19 -26 98 0 96 -1 98 -58 82 -23
-6 -24 -8 -17 -83 4 -48 3 -80 -3 -84 -6 -3 -12 28 -17 79 -7 84 -7 85 -33 85
-48 0 -51 -8 -40 -98 5 -46 7 -86 4 -90 -15 -14 -24 20 -30 110 -7 96 -7 97
16 103 29 6 112 12 158 11 l35 -1 8 -104z m-2206 -816 c-8 -21 -20 -42 -28
-45 -8 -4 -24 -12 -36 -18 -58 -30 -50 -5 23 73 51 54 62 51 41 -10z m-682
-155 c-10 -11 -20 -18 -23 -15 -3 3 3 14 13 25 10 11 20 18 23 15 3 -3 -3 -14
-13 -25z m-526 -589 c-22 -33 -43 -61 -45 -61 -7 0 27 63 54 98 41 54 35 29
-9 -37z m-84 -125 c-36 -62 -43 -59 -9 4 15 28 29 48 31 46 3 -3 -7 -25 -22
-50z m3782 -226 c48 -44 34 -125 -26 -150 -90 -37 -166 76 -96 145 31 32 91
34 122 5z m-3957 -129 c0 -5 -9 -19 -20 -32 l-21 -24 16 33 c15 31 25 41 25
23z m3782 -561 c82 -64 -7 -194 -100 -146 -37 19 -57 70 -43 109 21 55 96 75
143 37z"/>
<path d="M1257 8029 c-5 -92 -16 -157 -61 -334 -108 -433 -159 -737 -160 -950
-1 -165 8 -217 57 -330 52 -118 52 -118 53 54 0 179 7 222 95 576 85 342 103
454 103 655 0 173 -17 282 -62 394 l-19 49 -6 -114z"/>
<path d="M2260 7402 c-21 -34 -110 -133 -225 -247 -536 -534 -732 -785 -779
-995 -13 -58 -27 -180 -20 -180 1 0 21 35 44 77 68 126 161 234 450 523 289
289 355 368 453 547 26 49 60 129 76 178 26 82 44 155 38 155 -1 0 -18 -26
-37 -58z"/>
<path d="M468 6475 c7 -11 43 -62 81 -114 148 -203 183 -274 339 -701 121
-330 168 -440 227 -531 41 -64 118 -149 135 -149 8 0 9 -5 -19 170 -11 69 -25
163 -31 210 -15 107 -61 288 -100 385 -80 200 -154 309 -321 470 -143 138
-332 296 -311 260z"/>
<path d="M1668 6084 c-178 -373 -269 -727 -293 -1141 -10 -162 0 -178 40 -67
17 49 70 177 117 284 47 107 99 234 116 281 64 181 95 405 90 643 l-3 139 -67
-139z"/>
<path d="M654 5229 c21 -49 136 -263 186 -344 80 -131 212 -319 309 -439 93
-117 408 -448 442 -467 21 -11 -42 128 -139 306 -184 338 -316 505 -650 824
-128 121 -159 146 -148 120z"/>
<path d="M1780 5029 c32 -107 41 -215 55 -614 12 -351 18 -437 35 -520 25
-118 69 -231 130 -340 l45 -78 2 89 c1 49 7 222 13 384 13 344 5 489 -39 663
-44 172 -125 329 -215 416 l-36 35 10 -35z"/>
<path d="M1375 4540 c3 -5 8 -10 11 -10 2 0 4 5 4 10 0 6 -5 10 -11 10 -5 0
-7 -4 -4 -10z"/>
<path d="M760 4074 c0 -1 46 -38 103 -82 56 -44 172 -139 257 -212 298 -256
458 -374 615 -452 114 -57 257 -106 368 -127 l48 -9 -18 22 c-119 134 -346
375 -404 426 -231 205 -436 319 -695 384 -93 24 -274 57 -274 50z"/>
<path d="M6645 9709 c-44 -25 -58 -75 -35 -120 27 -49 136 -66 184 -28 23 18
27 27 24 67 -2 35 -9 49 -30 65 -31 23 -114 33 -143 16z"/>
<path d="M7648 8903 c12 -2 32 -2 45 0 12 2 2 4 -23 4 -25 0 -35 -2 -22 -4z"/>
<path d="M8560 8904 c-19 -2 -105 -8 -190 -14 -317 -22 -760 -61 -906 -80
-185 -24 -214 -25 -214 -5 0 8 -4 15 -10 15 -5 0 -10 -6 -10 -14 0 -21 -35
-30 -115 -29 -55 0 -64 -2 -45 -9 34 -13 239 -3 324 16 101 22 272 32 290 16
12 -9 55 -9 209 4 106 9 207 20 223 25 17 5 80 14 140 20 60 7 172 21 249 31
77 11 154 21 170 23 37 5 -66 5 -115 1z"/>
<path d="M7288 8863 c7 -3 16 -2 19 1 4 3 -2 6 -13 5 -11 0 -14 -3 -6 -6z"/>
<path d="M7188 8853 c7 -3 16 -2 19 1 4 3 -2 6 -13 5 -11 0 -14 -3 -6 -6z"/>
<path d="M7578 8853 c6 -2 18 -2 25 0 6 3 1 5 -13 5 -14 0 -19 -2 -12 -5z"/>
<path d="M6790 8804 c-339 -48 -1037 -190 -953 -193 12 -1 88 14 170 33 173
40 412 86 603 117 248 39 345 57 310 57 -19 0 -78 -6 -130 -14z"/>
<path d="M7178 8803 c7 -3 16 -2 19 1 4 3 -2 6 -13 5 -11 0 -14 -3 -6 -6z"/>
<path d="M6904 8760 c-5 -5 -27 -14 -49 -19 -40 -10 -39 -10 10 -5 68 7 95 15
95 25 0 12 -44 11 -56 -1z"/>
<path d="M7875 8760 c-3 -5 -2 -10 4 -10 5 0 13 5 16 10 3 6 2 10 -4 10 -5 0
-13 -4 -16 -10z"/>
<path d="M7585 8740 c-4 -6 7 -10 24 -10 17 0 31 5 31 10 0 6 -11 10 -24 10
-14 0 -28 -4 -31 -10z"/>
<path d="M7930 8730 c0 -5 5 -10 10 -10 6 0 10 5 10 10 0 6 -4 10 -10 10 -5 0
-10 -4 -10 -10z"/>
<path d="M6610 8710 c0 -5 4 -10 9 -10 6 0 13 5 16 10 3 6 -1 10 -9 10 -9 0
-16 -4 -16 -10z"/>
<path d="M7253 8703 c-7 -2 -13 -9 -13 -14 0 -10 61 0 75 12 10 10 -41 11 -62
2z"/>
<path d="M6458 8683 c7 -3 16 -2 19 1 4 3 -2 6 -13 5 -11 0 -14 -3 -6 -6z"/>
<path d="M6345 8670 c-3 -5 1 -10 9 -10 8 0 18 5 21 10 3 6 -1 10 -9 10 -8 0
-18 -4 -21 -10z"/>
<path d="M6270 8650 c-13 -8 -13 -10 2 -10 9 0 20 5 23 10 8 13 -5 13 -25 0z"/>
<path d="M6190 8640 c0 -5 4 -10 9 -10 6 0 13 5 16 10 3 6 -1 10 -9 10 -9 0
-16 -4 -16 -10z"/>
<path d="M6100 8620 l-25 -8 27 -1 c15 -1 30 4 33 9 7 11 0 11 -35 0z"/>
<path d="M5986 8591 c-3 -4 6 -6 19 -3 14 2 25 6 25 8 0 8 -39 4 -44 -5z"/>
<path d="M6800 8590 c0 -5 7 -10 15 -10 8 0 15 5 15 10 0 6 -7 10 -15 10 -8 0
-15 -4 -15 -10z"/>
<path d="M5628 8573 c7 -3 16 -2 19 1 4 3 -2 6 -13 5 -11 0 -14 -3 -6 -6z"/>
<path d="M5285 8476 c-195 -58 -270 -82 -220 -72 52 10 387 107 417 120 59 26
17 16 -197 -48z"/>
<path d="M5690 8520 c-18 -12 -2 -12 25 0 13 6 15 9 5 9 -8 0 -22 -4 -30 -9z"/>
<path d="M6060 8480 c-8 -5 -29 -10 -47 -10 -17 0 -35 -4 -38 -10 -7 -11 18
-13 63 -4 17 3 33 12 36 20 6 16 6 17 -14 4z"/>
<path d="M5290 8415 c-26 -10 -29 -14 -14 -14 12 -1 37 6 55 14 44 19 8 19
-41 0z"/>
<path d="M5750 8401 c-23 -7 -22 -8 13 -12 24 -3 42 0 49 8 8 10 5 13 -13 12
-13 -1 -35 -4 -49 -8z"/>
<path d="M4866 7549 c-15 -22 -26 -45 -24 -51 2 -5 16 13 31 41 34 61 30 67
-7 10z"/>
<path d="M4825 7376 c-41 -62 -83 -120 -92 -127 -14 -12 -14 -10 1 14 13 18
14 27 6 27 -12 0 -11 13 5 55 12 29 -22 -15 -73 -97 -47 -75 -49 -80 -27 -72
28 11 15 -12 -23 -43 -24 -20 -58 -68 -96 -139 -33 -60 -71 -127 -84 -148 -14
-22 -31 -56 -39 -75 l-14 -36 22 28 c17 23 59 38 59 22 0 -12 -143 -289 -175
-340 -43 -66 -75 -78 -49 -17 9 20 18 44 20 52 7 20 -55 -97 -72 -136 -13 -30
-12 -32 8 -26 19 4 20 2 15 -29 -11 -66 -20 -94 -33 -102 -16 -9 -19 -37 -4
-37 26 0 72 34 94 68 55 88 308 624 313 664 6 44 40 120 76 172 11 16 35 59
52 95 27 56 136 246 183 319 8 12 11 22 8 22 -4 0 -40 -51 -81 -114z m-119
-148 c-1 -26 -6 -34 -24 -36 -12 -2 -22 1 -22 6 0 9 38 62 45 62 1 0 2 -15 1
-32z m-138 -233 c1 -14 -9 -48 -22 -77 -20 -43 -25 -48 -25 -27 -1 31 27 129
37 129 4 0 9 -11 10 -25z"/>
<path d="M4795 7438 l-16 -33 21 24 c11 13 20 27 20 32 0 18 -10 8 -25 -23z"/>
<path d="M6594 6568 l-19 -23 23 19 c21 18 27 26 19 26 -2 0 -12 -10 -23 -22z"/>
<path d="M6461 6436 c-63 -68 -67 -86 -5 -26 41 40 71 80 61 80 -2 0 -27 -24
-56 -54z"/>
<path d="M4049 5778 c-43 -34 -45 -36 -73 -102 -9 -21 -26 -40 -37 -43 -18 -5
-20 -13 -18 -59 2 -39 -2 -59 -14 -72 -11 -12 -17 -36 -17 -66 0 -26 -4 -45
-9 -41 -11 6 -26 -115 -18 -145 3 -11 -1 -33 -9 -49 -22 -43 -25 -338 -4 -351
12 -7 12 -12 2 -22 -17 -17 -16 -113 3 -132 8 -8 15 -25 15 -38 0 -19 -2 -20
-11 -8 -13 20 -5 -34 26 -165 27 -113 69 -235 60 -175 -48 336 -49 534 -7 820
37 241 72 394 132 560 22 62 40 115 40 117 0 10 -24 -1 -61 -29z"/>
<path d="M6555 5800 c-3 -5 -1 -10 4 -10 6 0 11 5 11 10 0 6 -2 10 -4 10 -3 0
-8 -4 -11 -10z"/>
<path d="M6284 5548 c-30 -34 -47 -58 -42 -58 3 0 19 18 37 40 34 43 38 55 5
18z"/>
<path d="M6170 5325 c-7 -9 -10 -18 -7 -22 8 -7 37 15 37 28 0 14 -16 11 -30
-6z"/>
<path d="M5539 5275 c-15 -17 -40 -57 -57 -90 -16 -33 -39 -78 -51 -100 -11
-22 -24 -56 -27 -75 -7 -32 -6 -34 9 -21 9 7 17 20 17 28 0 8 9 27 20 43 11
15 16 30 12 34 -4 4 1 14 11 21 10 7 20 20 21 28 1 8 6 21 12 28 20 28 65 120
62 127 -2 5 -15 -6 -29 -23z"/>
<path d="M7789 4893 c-115 -136 -121 -143 -116 -143 2 0 42 44 87 98 113 132
114 132 108 132 -2 0 -38 -39 -79 -87z"/>
<path d="M5351 4921 c-12 -16 -24 -43 -27 -60 -4 -17 -13 -36 -20 -42 -16 -13
-19 -39 -4 -39 6 0 20 21 30 46 11 25 24 43 29 39 12 -7 25 31 16 45 -4 6 -1
17 5 25 8 10 9 15 2 15 -6 0 -20 -13 -31 -29z"/>
<path d="M5273 4743 c-7 -3 -13 -15 -13 -28 0 -13 -5 -27 -10 -30 -17 -11 -42
-67 -33 -76 4 -4 25 23 45 61 35 67 38 83 11 73z"/>
<path d="M5200 4560 c6 -11 15 -18 21 -15 5 4 3 12 -5 21 -21 20 -28 17 -16
-6z"/>
<path d="M7479 4554 c-12 -14 -11 -16 5 -13 11 2 21 10 24 17 5 17 -13 15 -29
-4z"/>
<path d="M5180 4540 c-1 -3 -4 -18 -6 -33 -1 -16 -10 -40 -19 -54 -12 -17 -13
-24 -4 -21 15 5 41 77 35 98 -2 8 -5 13 -6 10z"/>
<path d="M7429 4443 l-24 -28 28 24 c15 14 27 26 27 28 0 8 -8 1 -31 -24z"/>
<path d="M5116 4384 c-9 -22 3 -32 14 -14 12 19 12 30 1 30 -5 0 -12 -7 -15
-16z"/>
<path d="M5147 4374 c-4 -4 -7 -14 -7 -23 0 -11 3 -12 11 -4 6 6 10 16 7 23
-2 6 -7 8 -11 4z"/>
<path d="M7095 4140 c-3 -5 -1 -10 4 -10 6 0 11 5 11 10 0 6 -2 10 -4 10 -3 0
-8 -4 -11 -10z"/>
<path d="M6965 3959 c-66 -66 -167 -162 -225 -212 -134 -115 -136 -117 -128
-117 27 0 508 449 483 450 -6 0 -64 -54 -130 -121z"/>
<path d="M6980 4025 c-7 -9 -11 -17 -9 -20 3 -2 10 5 17 15 14 24 10 26 -8 5z"/>
<path d="M5006 3885 c-3 -9 -6 -24 -5 -33 0 -9 5 -4 10 12 9 32 6 48 -5 21z"/>
<path d="M4932 3862 c-12 -8 -23 -63 -35 -180 -8 -73 10 -36 24 48 7 44 19 86
26 92 14 11 18 48 6 48 -5 0 -14 -4 -21 -8z"/>
<path d="M8672 8330 l-32 -20 24 -47 c30 -60 58 -86 88 -81 19 2 23 9 22 39
-1 33 -47 129 -62 129 -4 0 -22 -9 -40 -20z"/>
<path d="M8793 7895 c11 -30 23 -55 28 -55 4 0 26 21 49 48 l42 47 -39 7 c-21
4 -52 7 -69 7 l-32 1 21 -55z"/>
</g>
</svg>
